<svg width="300" height="300" viewBox="0 0 300 300" fill="none" xmlns="http://www.w3.org/2000/svg">
<rect width="300" height="300" fill="#0D0D0D"/>
<rect x="80.4609" y="84.6875" width="16.496" height="37.116" rx="8.248" transform="rotate(-14.5862 80.4609 84.6875)" fill="white"/>
<path d="M157.57 73.1435L101.695 87.6836L106.888 107.639L162.763 93.099L157.57 73.1435Z" fill="white"/>
<rect x="158.687" y="64.332" width="16.496" height="37.116" rx="8.248" transform="rotate(-14.5862 158.687 64.332)" fill="white"/>
<path d="M148.215 102.474L127.461 107.875L154.364 211.259L175.118 205.859L148.215 102.474Z" fill="white"/>
<rect x="131.544" y="224.16" width="46.2917" height="4.20833" fill="white"/>
<path d="M122.075 238.057C122.075 233.064 126.123 229.016 131.117 229.016H178.263C183.256 229.016 187.304 233.064 187.304 238.057V240.641H122.075V238.057Z" fill="white"/>
</svg>
