<svg width="970" height="425" viewBox="0 0 970 425" fill="none" xmlns="http://www.w3.org/2000/svg">
<path d="M147.335 316.207L137.836 288.39H89.6658L79.8282 316.207H52.1811L97.4681 197.477H130.882L175.83 316.207H147.335ZM97.1288 267.019H130.543L121.723 240.898L113.921 218.17L113.242 220.375L106.118 241.068L97.1288 267.019ZM183.484 269.902V197.477H209.265V265.832C209.265 276.008 211.583 283.754 216.219 289.069C220.855 294.27 227.696 296.871 236.742 296.871C255.061 296.871 264.22 286.525 264.22 265.832V197.477H290.001V269.902C290.001 284.941 285.082 296.871 275.245 305.691C265.407 314.511 252.573 318.921 236.742 318.921C220.573 318.921 207.625 314.511 197.901 305.691C188.289 296.871 183.484 284.941 183.484 269.902ZM309.893 256.672C309.666 239.259 315.433 224.559 327.193 212.573C339.066 200.474 353.879 194.537 371.632 194.763C385.314 194.763 397.018 198.156 406.742 204.94C416.58 211.612 423.138 220.432 426.417 231.4L403.18 240.39C397.526 224.22 386.897 216.135 371.293 216.135C360.551 216.135 352.126 219.697 346.02 226.82C339.914 233.944 336.861 243.895 336.861 256.672C336.861 269.563 339.858 279.57 345.851 286.694C351.957 293.818 360.438 297.38 371.293 297.38C387.123 297.38 397.979 289.238 403.859 272.955L426.587 282.115C422.177 293.988 415.279 303.09 405.894 309.422C396.622 315.755 385.088 318.921 371.293 318.921C352.974 318.921 338.162 313.097 326.854 301.451C315.546 289.804 309.893 274.878 309.893 256.672ZM525.063 316.207V197.477H550.844V316.207H525.063ZM572.268 257.181C572.268 239.089 578.035 224.163 589.569 212.403C601.216 200.643 616.594 194.763 635.704 194.763C654.814 194.763 670.136 200.643 681.669 212.403C693.316 224.163 699.14 239.089 699.14 257.181C699.366 275.16 693.656 289.973 682.009 301.62C670.362 313.267 654.927 319.034 635.704 318.921C616.481 319.034 601.046 313.267 589.399 301.62C577.753 289.973 572.042 275.16 572.268 257.181ZM672.171 257.012C672.171 244.913 668.892 235.075 662.333 227.499C655.775 219.923 646.955 216.135 635.874 216.135C624.566 216.135 615.633 219.923 609.075 227.499C602.516 235.075 599.237 244.913 599.237 257.012C599.237 268.998 602.516 278.779 609.075 286.355C615.633 293.818 624.566 297.549 635.874 297.549C646.955 297.549 655.775 293.818 662.333 286.355C668.892 278.779 672.171 268.998 672.171 257.012ZM720.516 316.207V197.477H756.305L809.564 272.616V242.595V197.477H835.345V316.207H811.599L746.298 224.107V260.234V316.207H720.516Z" fill="white"/>
<rect x="401.086" y="160.27" width="16.496" height="37.116" rx="8.248" transform="rotate(-14.5862 401.086 160.27)" fill="#F07C00"/>
<path d="M478.195 148.726L422.32 163.266L427.513 183.221L483.388 168.681L478.195 148.726Z" fill="#F07C00"/>
<rect x="479.312" y="139.914" width="16.496" height="37.116" rx="8.248" transform="rotate(-14.5862 479.312 139.914)" fill="#F07C00"/>
<path d="M468.84 178.056L448.086 183.457L474.989 286.841L495.743 281.441L468.84 178.056Z" fill="#F07C00"/>
<rect x="452.177" y="299.707" width="46.2917" height="4.20833" fill="#F07C00"/>
<path d="M442.708 313.604C442.708 308.611 446.756 304.562 451.75 304.562H498.896C503.889 304.562 507.937 308.611 507.937 313.604V316.187H442.708V313.604Z" fill="#F07C00"/>
<path fill-rule="evenodd" clip-rule="evenodd" d="M877.873 113.678C883.809 113.678 888.61 108.932 888.61 103.08C888.61 97.2266 883.809 92.4805 877.873 92.4805C871.946 92.4805 867.145 97.2266 867.145 103.08C867.145 108.932 871.946 113.678 877.873 113.678ZM908.194 152.98C903.377 152.98 899.353 156.133 897.993 160.45H887.472C886.42 157.814 884.401 155.651 881.765 154.54V143.218C885.603 141.601 888.288 137.847 888.288 133.469C888.288 127.617 883.487 122.87 877.55 122.87C873.032 122.87 869.184 125.64 867.6 129.546H856.451C855.342 127.153 853.454 125.185 850.994 124.15V112.829C854.833 111.211 857.518 107.456 857.518 103.08C857.518 97.2266 852.715 92.4805 846.779 92.4805C840.854 92.4805 836.052 97.2266 836.052 103.08C836.052 107.456 838.741 111.213 842.574 112.829V124.148C840.12 125.183 838.228 127.153 837.118 129.546H826.497C824.816 125.869 821.084 123.3 816.728 123.3C810.802 123.3 806 128.047 806 133.899C806 139.752 810.802 144.498 816.728 144.498C821.241 144.498 825.084 141.748 826.673 137.861H836.932C837.998 140.44 839.983 142.557 842.574 143.651V154.313C838.741 155.936 836.052 159.692 836.052 164.067C836.052 169.919 840.854 174.666 846.779 174.666C852.715 174.666 857.518 169.919 857.518 164.067C857.518 159.692 854.833 155.936 850.994 154.318V143.648C853.591 142.555 855.571 140.44 856.642 137.861H867.908C869.022 140.237 870.901 142.19 873.345 143.221V154.535C869.512 156.157 866.823 159.914 866.823 164.289C866.823 168.664 869.512 172.42 873.345 174.038V184.706C869.512 186.323 866.823 190.08 866.823 194.459C866.823 200.312 871.624 205.053 877.55 205.053C883.487 205.053 888.288 200.312 888.288 194.459C888.288 190.08 885.603 186.328 881.765 184.706V174.038C884.181 173.02 886.043 171.098 887.163 168.765H898.893C900.732 171.981 904.184 174.178 908.194 174.178C914.13 174.178 918.931 169.427 918.931 163.574C918.931 157.722 914.13 152.98 908.194 152.98Z" fill="#F07C00"/>
</svg>
